<svg width="37" height="37" viewBox="0 0 37 37" fill="none" xmlns="http://www.w3.org/2000/svg">
<path d="M7.55898 3.46875H4.625C2.07402 3.46875 0 5.54277 0 8.09375V27.75C0 30.301 2.07402 32.375 4.625 32.375H11.5625V28.9062H4.625C3.98906 28.9062 3.46875 28.3859 3.46875 27.75V8.09375C3.46875 7.45781 3.98906 6.9375 4.625 6.9375H5.78125C5.78125 8.2166 6.81465 9.25 8.09375 9.25H13.3258C14.5977 7.83359 16.4477 6.9375 18.5 6.9375H22.9805C22.4674 4.94297 20.6535 3.46875 18.5 3.46875H15.566C15.2914 1.51035 13.6004 0 11.5625 0C9.52461 0 7.83359 1.51035 7.55898 3.46875ZM10.4062 4.04688C10.4062 3.74022 10.5281 3.44612 10.7449 3.22928C10.9617 3.01244 11.2558 2.89063 11.5625 2.89062C11.8692 2.89063 12.1633 3.01244 12.3801 3.22928C12.5969 3.44612 12.7188 3.74022 12.7188 4.04688C12.7188 4.35353 12.5969 4.64763 12.3801 4.86447C12.1633 5.08131 11.8692 5.20312 11.5625 5.20312C11.2558 5.20312 10.9617 5.08131 10.7449 4.86447C10.5281 4.64763 10.4062 4.35353 10.4062 4.04688ZM32.375 33.5312H18.5C17.8641 33.5312 17.3438 33.0109 17.3438 32.375V13.875C17.3438 13.2391 17.8641 12.7188 18.5 12.7188H28.6244L33.5312 17.6256V32.375C33.5312 33.0109 33.0109 33.5312 32.375 33.5312ZM18.5 37H32.375C34.926 37 37 34.926 37 32.375V17.6256C37 16.7078 36.6314 15.8262 35.9811 15.1758L31.0742 10.2689C30.4238 9.61856 29.5422 9.25 28.6244 9.25H18.5C15.949 9.25 13.875 11.324 13.875 13.875V32.375C13.875 34.926 15.949 37 18.5 37Z" fill="url(#paint0_linear_2_51)"/>
<defs>
<linearGradient id="paint0_linear_2_51" x1="0" y1="0" x2="37" y2="37" gradientUnits="userSpaceOnUse">
<stop stop-color="#1865FB"/>
<stop offset="1" stop-color="#39C4FF"/>
</linearGradient>
</defs>
</svg>
