<svg width="67" height="66" viewBox="0 0 67 66" fill="none" xmlns="http://www.w3.org/2000/svg">
<path d="M22.4035 52.5098C22.4035 52.7786 22.0929 52.9936 21.7013 52.9936C21.2557 53.034 20.9451 52.8189 20.9451 52.5098C20.9451 52.241 21.2557 52.0259 21.6473 52.0259C22.0524 51.9856 22.4035 52.2006 22.4035 52.5098ZM18.2037 51.905C18.1092 52.1738 18.3793 52.4829 18.7844 52.5635C19.1355 52.6979 19.5406 52.5635 19.6217 52.2947C19.7027 52.0259 19.4461 51.7168 19.041 51.5958C18.6899 51.5017 18.2982 51.6361 18.2037 51.905ZM24.1726 51.6765C23.781 51.7705 23.5109 52.0259 23.5514 52.3351C23.5919 52.6039 23.943 52.7786 24.3481 52.6845C24.7398 52.5904 25.0099 52.3351 24.9693 52.0662C24.9288 51.8109 24.5642 51.6361 24.1726 51.6765ZM33.0584 0.171875C14.328 0.171875 0 14.3249 0 32.9671C0 47.8728 9.42596 60.6279 22.8897 65.1171C24.6182 65.4263 25.2259 64.3644 25.2259 63.4908C25.2259 62.6575 25.1854 58.0608 25.1854 55.2382C25.1854 55.2382 15.7324 57.2543 13.7473 51.2329C13.7473 51.2329 12.2078 47.3217 9.99314 46.3136C9.99314 46.3136 6.90067 44.2035 10.2092 44.2438C10.2092 44.2438 13.5718 44.5126 15.4218 47.7115C18.3793 52.8996 23.3353 51.4076 25.2664 50.5206C25.577 48.3701 26.4548 46.8781 27.4271 45.9911C19.8782 45.1577 12.2619 44.069 12.2619 31.1391C12.2619 27.443 13.2882 25.5882 15.4489 23.2226C15.0977 22.349 13.9499 18.7469 15.8 14.0964C18.6223 13.2227 25.1179 17.7254 25.1179 17.7254C27.8187 16.9727 30.7221 16.5829 33.5986 16.5829C36.475 16.5829 39.3784 16.9727 42.0792 17.7254C42.0792 17.7254 48.5748 13.2093 51.3971 14.0964C53.2472 18.7603 52.0994 22.349 51.7483 23.2226C53.9089 25.6016 55.2323 27.4564 55.2323 31.1391C55.2323 44.1094 47.2784 45.1443 39.7295 45.9911C40.9719 47.0529 42.0252 49.069 42.0252 52.2275C42.0252 56.757 41.9847 62.3618 41.9847 63.4639C41.9847 64.3376 42.6059 65.3994 44.3209 65.0902C57.8252 60.6279 66.981 47.8728 66.981 32.9671C66.981 14.3249 51.7888 0.171875 33.0584 0.171875ZM13.1261 46.5287C12.9506 46.6631 12.9911 46.9722 13.2207 47.2276C13.4367 47.4427 13.7473 47.5367 13.9229 47.362C14.0984 47.2276 14.0579 46.9185 13.8283 46.6631C13.6123 46.448 13.3017 46.354 13.1261 46.5287ZM11.6677 45.44C11.5731 45.6147 11.7082 45.8298 11.9783 45.9642C12.1943 46.0986 12.4644 46.0583 12.5589 45.8701C12.6535 45.6954 12.5184 45.4803 12.2483 45.3459C11.9783 45.2653 11.7622 45.3056 11.6677 45.44ZM16.043 50.2249C15.827 50.3996 15.908 50.8028 16.2186 51.0582C16.5292 51.3673 16.9208 51.4076 17.0964 51.1926C17.2719 51.0179 17.1909 50.6146 16.9208 50.3593C16.6237 50.0501 16.2186 50.0098 16.043 50.2249ZM14.5036 48.2491C14.2875 48.3835 14.2875 48.733 14.5036 49.0421C14.7196 49.3512 15.0842 49.4856 15.2598 49.3512C15.4759 49.1765 15.4759 48.827 15.2598 48.5179C15.0707 48.2088 14.7196 48.0744 14.5036 48.2491Z" fill="url(#paint0_linear_3_112)"/>
<defs>
<linearGradient id="paint0_linear_3_112" x1="3.22794e-07" y1="0.0229159" x2="66.7333" y2="65.0229" gradientUnits="userSpaceOnUse">
<stop stop-color="#1865FB"/>
<stop offset="1" stop-color="#39C4FF"/>
</linearGradient>
</defs>
</svg>
