<svg width="65" height="65" viewBox="0 0 65 65" fill="none" xmlns="http://www.w3.org/2000/svg">
<path d="M60.3571 0H4.62835C2.07478 0 0 2.1038 0 4.68638V60.3136C0 62.8962 2.07478 65 4.62835 65H60.3571C62.9107 65 65 62.8962 65 60.3136V4.68638C65 2.1038 62.9107 0 60.3571 0ZM19.6451 55.7143H10.0112V24.6942H19.6596V55.7143H19.6451ZM14.8281 20.4576C11.7377 20.4576 9.24219 17.9475 9.24219 14.8717C9.24219 11.7958 11.7377 9.28571 14.8281 9.28571C17.904 9.28571 20.4141 11.7958 20.4141 14.8717C20.4141 17.9621 17.9185 20.4576 14.8281 20.4576ZM55.7578 55.7143H46.1239V40.625C46.1239 37.0268 46.0513 32.3984 41.1183 32.3984C36.0982 32.3984 35.3292 36.3158 35.3292 40.3638V55.7143H25.6953V24.6942H34.9375V28.9308H35.0681C36.3594 26.4933 39.5078 23.9252 44.1942 23.9252C53.9442 23.9252 55.7578 30.3527 55.7578 38.7098V55.7143Z" fill="url(#paint0_linear_3_114)"/>
<defs>
<linearGradient id="paint0_linear_3_114" x1="0" y1="0" x2="65" y2="65" gradientUnits="userSpaceOnUse">
<stop stop-color="#1865FB"/>
<stop offset="1" stop-color="#39C4FF"/>
</linearGradient>
</defs>
</svg>
