<svg width="32" height="31" viewBox="0 0 32 31" fill="none" xmlns="http://www.w3.org/2000/svg">
<path d="M7.56511 8.85788H11.0339C12.2545 8.85788 13.2407 9.84728 13.2407 11.0719C13.2407 12.2966 12.2545 13.286 11.0339 13.286H2.20678C0.986154 13.286 0 12.2966 0 11.0719V2.21577C0 0.991128 0.986154 0.00172982 2.20678 0.00172982C3.4274 0.00172982 4.41356 0.991128 4.41356 2.21577V5.75823L5.62728 4.54051C11.6614 -1.5135 21.4402 -1.5135 27.4744 4.54051C33.5085 10.5945 33.5085 20.4055 27.4744 26.4595C21.4402 32.5135 11.6614 32.5135 5.62728 26.4595C4.76526 25.5946 4.76526 24.1901 5.62728 23.3252C6.48931 22.4604 7.88923 22.4604 8.75125 23.3252C13.0614 27.6495 20.0472 27.6495 24.3573 23.3252C28.6674 19.0009 28.6674 11.9921 24.3573 7.66784C20.0472 3.34354 13.0614 3.34354 8.75125 7.66784L7.56511 8.85788Z" fill="url(#paint0_linear_2_28)"/>
<defs>
<linearGradient id="paint0_linear_2_28" x1="-3.49317e-07" y1="3" x2="32" y2="27.5" gradientUnits="userSpaceOnUse">
<stop stop-color="#1865FB"/>
<stop offset="1" stop-color="#39C4FF"/>
</linearGradient>
</defs>
</svg>
